<?xml version="1.0" encoding="utf-8"?>
<svg xmlns="http://www.w3.org/2000/svg" xmlns:xlink="http://www.w3.org/1999/xlink" width="576" height="384" viewBox="0 0 2304 1536">
<defs>
  <clipPath id="clip6500">
    <rect x="0" y="0" width="2000" height="2000"/>
  </clipPath>
</defs>
<defs>
  <clipPath id="clip6501">
    <rect x="0" y="0" width="2304" height="1536"/>
  </clipPath>
</defs>
<polygon clip-path="url(#clip6501)" points="
0,1536 2304,1536 2304,0 0,0 
  " fill="#ffffff" fill-rule="evenodd" fill-opacity="1"/>
<defs>
  <clipPath id="clip6502">
    <rect x="460" y="0" width="1614" height="1536"/>
  </clipPath>
</defs>
<polygon clip-path="url(#clip6501)" points="
157.48,1410.02 2225.26,1410.02 2225.26,125.984 157.48,125.984 
  " fill="#ffffff" fill-rule="evenodd" fill-opacity="1"/>
<defs>
  <clipPath id="clip6503">
    <rect x="157" y="125" width="2069" height="1285"/>
  </clipPath>
</defs>
<polyline clip-path="url(#clip6503)" style="stroke:#000000; stroke-width:2; stroke-opacity:0.1; fill:none" points="
  216.002,1410.02 216.002,125.984 
  "/>
<polyline clip-path="url(#clip6503)" style="stroke:#000000; stroke-width:2; stroke-opacity:0.1; fill:none" points="
  773.355,1410.02 773.355,125.984 
  "/>
<polyline clip-path="url(#clip6503)" style="stroke:#000000; stroke-width:2; stroke-opacity:0.1; fill:none" points="
  1330.71,1410.02 1330.71,125.984 
  "/>
<polyline clip-path="url(#clip6503)" style="stroke:#000000; stroke-width:2; stroke-opacity:0.1; fill:none" points="
  1888.06,1410.02 1888.06,125.984 
  "/>
<polyline clip-path="url(#clip6503)" style="stroke:#000000; stroke-width:2; stroke-opacity:0.1; fill:none" points="
  157.48,1399.59 2225.26,1399.59 
  "/>
<polyline clip-path="url(#clip6503)" style="stroke:#000000; stroke-width:2; stroke-opacity:0.1; fill:none" points="
  157.48,1178.57 2225.26,1178.57 
  "/>
<polyline clip-path="url(#clip6503)" style="stroke:#000000; stroke-width:2; stroke-opacity:0.1; fill:none" points="
  157.48,957.552 2225.26,957.552 
  "/>
<polyline clip-path="url(#clip6503)" style="stroke:#000000; stroke-width:2; stroke-opacity:0.1; fill:none" points="
  157.48,736.533 2225.26,736.533 
  "/>
<polyline clip-path="url(#clip6503)" style="stroke:#000000; stroke-width:2; stroke-opacity:0.1; fill:none" points="
  157.48,515.513 2225.26,515.513 
  "/>
<polyline clip-path="url(#clip6503)" style="stroke:#000000; stroke-width:2; stroke-opacity:0.1; fill:none" points="
  157.48,294.493 2225.26,294.493 
  "/>
<polyline clip-path="url(#clip6501)" style="stroke:#000000; stroke-width:4; stroke-opacity:1; fill:none" points="
  157.48,1410.02 2225.26,1410.02 
  "/>
<polyline clip-path="url(#clip6501)" style="stroke:#000000; stroke-width:4; stroke-opacity:1; fill:none" points="
  157.48,1410.02 157.48,125.984 
  "/>
<polyline clip-path="url(#clip6501)" style="stroke:#000000; stroke-width:4; stroke-opacity:1; fill:none" points="
  216.002,1410.02 216.002,1390.76 
  "/>
<polyline clip-path="url(#clip6501)" style="stroke:#000000; stroke-width:4; stroke-opacity:1; fill:none" points="
  773.355,1410.02 773.355,1390.76 
  "/>
<polyline clip-path="url(#clip6501)" style="stroke:#000000; stroke-width:4; stroke-opacity:1; fill:none" points="
  1330.71,1410.02 1330.71,1390.76 
  "/>
<polyline clip-path="url(#clip6501)" style="stroke:#000000; stroke-width:4; stroke-opacity:1; fill:none" points="
  1888.06,1410.02 1888.06,1390.76 
  "/>
<polyline clip-path="url(#clip6501)" style="stroke:#000000; stroke-width:4; stroke-opacity:1; fill:none" points="
  157.48,1399.59 188.497,1399.59 
  "/>
<polyline clip-path="url(#clip6501)" style="stroke:#000000; stroke-width:4; stroke-opacity:1; fill:none" points="
  157.48,1178.57 188.497,1178.57 
  "/>
<polyline clip-path="url(#clip6501)" style="stroke:#000000; stroke-width:4; stroke-opacity:1; fill:none" points="
  157.48,957.552 188.497,957.552 
  "/>
<polyline clip-path="url(#clip6501)" style="stroke:#000000; stroke-width:4; stroke-opacity:1; fill:none" points="
  157.48,736.533 188.497,736.533 
  "/>
<polyline clip-path="url(#clip6501)" style="stroke:#000000; stroke-width:4; stroke-opacity:1; fill:none" points="
  157.48,515.513 188.497,515.513 
  "/>
<polyline clip-path="url(#clip6501)" style="stroke:#000000; stroke-width:4; stroke-opacity:1; fill:none" points="
  157.48,294.493 188.497,294.493 
  "/>
<g clip-path="url(#clip6501)">
<text style="fill:#000000; fill-opacity:1; font-family:Arial,Helvetica Neue,Helvetica,sans-serif; font-size:48px; text-anchor:middle;" transform="rotate(0, 216.002, 1463.54)" x="216.002" y="1463.54">2</text>
</g>
<g clip-path="url(#clip6501)">
<text style="fill:#000000; fill-opacity:1; font-family:Arial,Helvetica Neue,Helvetica,sans-serif; font-size:48px; text-anchor:middle;" transform="rotate(0, 773.355, 1463.54)" x="773.355" y="1463.54">4</text>
</g>
<g clip-path="url(#clip6501)">
<text style="fill:#000000; fill-opacity:1; font-family:Arial,Helvetica Neue,Helvetica,sans-serif; font-size:48px; text-anchor:middle;" transform="rotate(0, 1330.71, 1463.54)" x="1330.71" y="1463.54">6</text>
</g>
<g clip-path="url(#clip6501)">
<text style="fill:#000000; fill-opacity:1; font-family:Arial,Helvetica Neue,Helvetica,sans-serif; font-size:48px; text-anchor:middle;" transform="rotate(0, 1888.06, 1463.54)" x="1888.06" y="1463.54">8</text>
</g>
<g clip-path="url(#clip6501)">
<text style="fill:#000000; fill-opacity:1; font-family:Arial,Helvetica Neue,Helvetica,sans-serif; font-size:48px; text-anchor:end;" transform="rotate(0, 134.44, 1417.09)" x="134.44" y="1417.09">-7.0</text>
</g>
<g clip-path="url(#clip6501)">
<text style="fill:#000000; fill-opacity:1; font-family:Arial,Helvetica Neue,Helvetica,sans-serif; font-size:48px; text-anchor:end;" transform="rotate(0, 134.44, 1196.07)" x="134.44" y="1196.07">-6.5</text>
</g>
<g clip-path="url(#clip6501)">
<text style="fill:#000000; fill-opacity:1; font-family:Arial,Helvetica Neue,Helvetica,sans-serif; font-size:48px; text-anchor:end;" transform="rotate(0, 134.44, 975.052)" x="134.44" y="975.052">-6.0</text>
</g>
<g clip-path="url(#clip6501)">
<text style="fill:#000000; fill-opacity:1; font-family:Arial,Helvetica Neue,Helvetica,sans-serif; font-size:48px; text-anchor:end;" transform="rotate(0, 134.44, 754.033)" x="134.44" y="754.033">-5.5</text>
</g>
<g clip-path="url(#clip6501)">
<text style="fill:#000000; fill-opacity:1; font-family:Arial,Helvetica Neue,Helvetica,sans-serif; font-size:48px; text-anchor:end;" transform="rotate(0, 134.44, 533.013)" x="134.44" y="533.013">-5.0</text>
</g>
<g clip-path="url(#clip6501)">
<text style="fill:#000000; fill-opacity:1; font-family:Arial,Helvetica Neue,Helvetica,sans-serif; font-size:48px; text-anchor:end;" transform="rotate(0, 134.44, 311.993)" x="134.44" y="311.993">-4.5</text>
</g>
<g clip-path="url(#clip6501)">
<text style="fill:#000000; fill-opacity:1; font-family:Arial,Helvetica Neue,Helvetica,sans-serif; font-size:84px; text-anchor:middle;" transform="rotate(0, 1191.37, 73.2)" x="1191.37" y="73.2">Float64</text>
</g>
<g clip-path="url(#clip6501)">
<text style="fill:#000000; fill-opacity:1; font-family:Arial,Helvetica Neue,Helvetica,sans-serif; font-size:66px; text-anchor:middle;" transform="rotate(0, 1191.37, 1526.4)" x="1191.37" y="1526.4">log_2 N</text>
</g>
<g clip-path="url(#clip6501)">
<text style="fill:#000000; fill-opacity:1; font-family:Arial,Helvetica Neue,Helvetica,sans-serif; font-size:66px; text-anchor:middle;" transform="rotate(-90, 57.6, 768)" x="57.6" y="768">log_10 (Time/s)</text>
</g>
<polyline clip-path="url(#clip6503)" style="stroke:#009af9; stroke-width:4; stroke-opacity:1; fill:none" points="
  216.002,1367.24 494.679,1373.68 773.355,1280.05 1052.03,1200.07 1330.71,962.545 1609.38,771.187 1888.06,163.227 2166.74,162.325 
  "/>
<polyline clip-path="url(#clip6503)" style="stroke:#e26f46; stroke-width:4; stroke-opacity:1; fill:none" points="
  216.002,382.196 494.679,381.937 773.355,377.611 1052.03,377.219 1330.71,373.088 1609.38,376.668 1888.06,369.035 2166.74,336.673 
  "/>
<polygon clip-path="url(#clip6501)" points="
226.6,385.184 860.89,385.184 860.89,203.744 226.6,203.744 
  " fill="#ffffff" fill-rule="evenodd" fill-opacity="1"/>
<polyline clip-path="url(#clip6501)" style="stroke:#000000; stroke-width:4; stroke-opacity:1; fill:none" points="
  226.6,385.184 860.89,385.184 860.89,203.744 226.6,203.744 226.6,385.184 
  "/>
<polyline clip-path="url(#clip6501)" style="stroke:#009af9; stroke-width:4; stroke-opacity:1; fill:none" points="
  249.64,264.224 387.88,264.224 
  "/>
<g clip-path="url(#clip6501)">
<text style="fill:#000000; fill-opacity:1; font-family:Arial,Helvetica Neue,Helvetica,sans-serif; font-size:48px; text-anchor:start;" transform="rotate(0, 410.92, 281.724)" x="410.92" y="281.724">CPU mat_vec_mul</text>
</g>
<polyline clip-path="url(#clip6501)" style="stroke:#e26f46; stroke-width:4; stroke-opacity:1; fill:none" points="
  249.64,324.704 387.88,324.704 
  "/>
<g clip-path="url(#clip6501)">
<text style="fill:#000000; fill-opacity:1; font-family:Arial,Helvetica Neue,Helvetica,sans-serif; font-size:48px; text-anchor:start;" transform="rotate(0, 410.92, 342.204)" x="410.92" y="342.204">GPU mat_vec_mul</text>
</g>
</svg>
