<?xml version="1.0" encoding="utf-8"?>
<svg xmlns="http://www.w3.org/2000/svg" xmlns:xlink="http://www.w3.org/1999/xlink" width="576" height="384" viewBox="0 0 2304 1536">
<defs>
  <clipPath id="clip6400">
    <rect x="0" y="0" width="2000" height="2000"/>
  </clipPath>
</defs>
<defs>
  <clipPath id="clip6401">
    <rect x="0" y="0" width="2304" height="1536"/>
  </clipPath>
</defs>
<polygon clip-path="url(#clip6401)" points="
0,1536 2304,1536 2304,0 0,0 
  " fill="#ffffff" fill-rule="evenodd" fill-opacity="1"/>
<defs>
  <clipPath id="clip6402">
    <rect x="460" y="0" width="1614" height="1536"/>
  </clipPath>
</defs>
<polygon clip-path="url(#clip6401)" points="
157.48,1410.02 2225.26,1410.02 2225.26,125.984 157.48,125.984 
  " fill="#ffffff" fill-rule="evenodd" fill-opacity="1"/>
<defs>
  <clipPath id="clip6403">
    <rect x="157" y="125" width="2069" height="1285"/>
  </clipPath>
</defs>
<polyline clip-path="url(#clip6403)" style="stroke:#000000; stroke-width:2; stroke-opacity:0.1; fill:none" points="
  313.539,1410.02 313.539,125.984 
  "/>
<polyline clip-path="url(#clip6403)" style="stroke:#000000; stroke-width:2; stroke-opacity:0.1; fill:none" points="
  801.223,1410.02 801.223,125.984 
  "/>
<polyline clip-path="url(#clip6403)" style="stroke:#000000; stroke-width:2; stroke-opacity:0.1; fill:none" points="
  1288.91,1410.02 1288.91,125.984 
  "/>
<polyline clip-path="url(#clip6403)" style="stroke:#000000; stroke-width:2; stroke-opacity:0.1; fill:none" points="
  1776.59,1410.02 1776.59,125.984 
  "/>
<polyline clip-path="url(#clip6403)" style="stroke:#000000; stroke-width:2; stroke-opacity:0.1; fill:none" points="
  157.48,1221.9 2225.26,1221.9 
  "/>
<polyline clip-path="url(#clip6403)" style="stroke:#000000; stroke-width:2; stroke-opacity:0.1; fill:none" points="
  157.48,891.817 2225.26,891.817 
  "/>
<polyline clip-path="url(#clip6403)" style="stroke:#000000; stroke-width:2; stroke-opacity:0.1; fill:none" points="
  157.48,561.734 2225.26,561.734 
  "/>
<polyline clip-path="url(#clip6403)" style="stroke:#000000; stroke-width:2; stroke-opacity:0.1; fill:none" points="
  157.48,231.651 2225.26,231.651 
  "/>
<polyline clip-path="url(#clip6401)" style="stroke:#000000; stroke-width:4; stroke-opacity:1; fill:none" points="
  157.48,1410.02 2225.26,1410.02 
  "/>
<polyline clip-path="url(#clip6401)" style="stroke:#000000; stroke-width:4; stroke-opacity:1; fill:none" points="
  157.48,1410.02 157.48,125.984 
  "/>
<polyline clip-path="url(#clip6401)" style="stroke:#000000; stroke-width:4; stroke-opacity:1; fill:none" points="
  313.539,1410.02 313.539,1390.76 
  "/>
<polyline clip-path="url(#clip6401)" style="stroke:#000000; stroke-width:4; stroke-opacity:1; fill:none" points="
  801.223,1410.02 801.223,1390.76 
  "/>
<polyline clip-path="url(#clip6401)" style="stroke:#000000; stroke-width:4; stroke-opacity:1; fill:none" points="
  1288.91,1410.02 1288.91,1390.76 
  "/>
<polyline clip-path="url(#clip6401)" style="stroke:#000000; stroke-width:4; stroke-opacity:1; fill:none" points="
  1776.59,1410.02 1776.59,1390.76 
  "/>
<polyline clip-path="url(#clip6401)" style="stroke:#000000; stroke-width:4; stroke-opacity:1; fill:none" points="
  157.48,1221.9 188.497,1221.9 
  "/>
<polyline clip-path="url(#clip6401)" style="stroke:#000000; stroke-width:4; stroke-opacity:1; fill:none" points="
  157.48,891.817 188.497,891.817 
  "/>
<polyline clip-path="url(#clip6401)" style="stroke:#000000; stroke-width:4; stroke-opacity:1; fill:none" points="
  157.48,561.734 188.497,561.734 
  "/>
<polyline clip-path="url(#clip6401)" style="stroke:#000000; stroke-width:4; stroke-opacity:1; fill:none" points="
  157.48,231.651 188.497,231.651 
  "/>
<g clip-path="url(#clip6401)">
<text style="fill:#000000; fill-opacity:1; font-family:Arial,Helvetica Neue,Helvetica,sans-serif; font-size:48px; text-anchor:middle;" transform="rotate(0, 313.539, 1463.54)" x="313.539" y="1463.54">2.5</text>
</g>
<g clip-path="url(#clip6401)">
<text style="fill:#000000; fill-opacity:1; font-family:Arial,Helvetica Neue,Helvetica,sans-serif; font-size:48px; text-anchor:middle;" transform="rotate(0, 801.223, 1463.54)" x="801.223" y="1463.54">5.0</text>
</g>
<g clip-path="url(#clip6401)">
<text style="fill:#000000; fill-opacity:1; font-family:Arial,Helvetica Neue,Helvetica,sans-serif; font-size:48px; text-anchor:middle;" transform="rotate(0, 1288.91, 1463.54)" x="1288.91" y="1463.54">7.5</text>
</g>
<g clip-path="url(#clip6401)">
<text style="fill:#000000; fill-opacity:1; font-family:Arial,Helvetica Neue,Helvetica,sans-serif; font-size:48px; text-anchor:middle;" transform="rotate(0, 1776.59, 1463.54)" x="1776.59" y="1463.54">10.0</text>
</g>
<g clip-path="url(#clip6401)">
<text style="fill:#000000; fill-opacity:1; font-family:Arial,Helvetica Neue,Helvetica,sans-serif; font-size:48px; text-anchor:end;" transform="rotate(0, 134.44, 1239.4)" x="134.44" y="1239.4">-6</text>
</g>
<g clip-path="url(#clip6401)">
<text style="fill:#000000; fill-opacity:1; font-family:Arial,Helvetica Neue,Helvetica,sans-serif; font-size:48px; text-anchor:end;" transform="rotate(0, 134.44, 909.317)" x="134.44" y="909.317">-4</text>
</g>
<g clip-path="url(#clip6401)">
<text style="fill:#000000; fill-opacity:1; font-family:Arial,Helvetica Neue,Helvetica,sans-serif; font-size:48px; text-anchor:end;" transform="rotate(0, 134.44, 579.234)" x="134.44" y="579.234">-2</text>
</g>
<g clip-path="url(#clip6401)">
<text style="fill:#000000; fill-opacity:1; font-family:Arial,Helvetica Neue,Helvetica,sans-serif; font-size:48px; text-anchor:end;" transform="rotate(0, 134.44, 249.151)" x="134.44" y="249.151">0</text>
</g>
<g clip-path="url(#clip6401)">
<text style="fill:#000000; fill-opacity:1; font-family:Arial,Helvetica Neue,Helvetica,sans-serif; font-size:84px; text-anchor:middle;" transform="rotate(0, 1191.37, 73.2)" x="1191.37" y="73.2">Float32</text>
</g>
<g clip-path="url(#clip6401)">
<text style="fill:#000000; fill-opacity:1; font-family:Arial,Helvetica Neue,Helvetica,sans-serif; font-size:66px; text-anchor:middle;" transform="rotate(0, 1191.37, 1526.4)" x="1191.37" y="1526.4">log_2 N</text>
</g>
<g clip-path="url(#clip6401)">
<text style="fill:#000000; fill-opacity:1; font-family:Arial,Helvetica Neue,Helvetica,sans-serif; font-size:66px; text-anchor:middle;" transform="rotate(-90, 57.6, 768)" x="57.6" y="768">log_10 (Time/s)</text>
</g>
<polyline clip-path="url(#clip6403)" style="stroke:#009af9; stroke-width:4; stroke-opacity:1; fill:none" points="
  216.002,1373.68 411.076,1373.41 606.149,1326.37 801.223,1312.54 996.297,1221.32 1191.37,1151.93 1386.44,998.011 1581.52,927.802 1776.59,817.492 1971.66,666.026 
  2166.74,551.309 
  "/>
<polyline clip-path="url(#clip6403)" style="stroke:#e26f46; stroke-width:4; stroke-opacity:1; fill:none" points="
  216.002,1001.1 411.076,1008.28 606.149,1005.73 801.223,1004.96 996.297,1008.68 1191.37,1002.95 1386.44,1001.84 1581.52,998.998 1776.59,967.613 1971.66,922.747 
  2166.74,848.534 
  "/>
<polyline clip-path="url(#clip6403)" style="stroke:#3da44d; stroke-width:4; stroke-opacity:1; fill:none" points="
  216.002,1293.82 411.076,1239.98 606.149,1141.93 801.223,1063.15 996.297,970.44 1191.37,860.481 1386.44,730.71 1581.52,595.288 1776.59,453.876 1971.66,310.093 
  2166.74,162.325 
  "/>
<polyline clip-path="url(#clip6403)" style="stroke:#c271d2; stroke-width:4; stroke-opacity:1; fill:none" points="
  216.002,960.6 411.076,1001.79 606.149,1005.53 801.223,1003.41 996.297,985.705 1191.37,978.6 1386.44,978.771 1581.52,920.375 1776.59,798.832 1971.66,674.424 
  2166.74,530.24 
  "/>
<polygon clip-path="url(#clip6401)" points="
226.6,506.144 866.233,506.144 866.233,203.744 226.6,203.744 
  " fill="#ffffff" fill-rule="evenodd" fill-opacity="1"/>
<polyline clip-path="url(#clip6401)" style="stroke:#000000; stroke-width:4; stroke-opacity:1; fill:none" points="
  226.6,506.144 866.233,506.144 866.233,203.744 226.6,203.744 226.6,506.144 
  "/>
<polyline clip-path="url(#clip6401)" style="stroke:#009af9; stroke-width:4; stroke-opacity:1; fill:none" points="
  249.64,264.224 387.88,264.224 
  "/>
<g clip-path="url(#clip6401)">
<text style="fill:#000000; fill-opacity:1; font-family:Arial,Helvetica Neue,Helvetica,sans-serif; font-size:48px; text-anchor:start;" transform="rotate(0, 410.92, 281.724)" x="410.92" y="281.724">CPU mat_vec_mul</text>
</g>
<polyline clip-path="url(#clip6401)" style="stroke:#e26f46; stroke-width:4; stroke-opacity:1; fill:none" points="
  249.64,324.704 387.88,324.704 
  "/>
<g clip-path="url(#clip6401)">
<text style="fill:#000000; fill-opacity:1; font-family:Arial,Helvetica Neue,Helvetica,sans-serif; font-size:48px; text-anchor:start;" transform="rotate(0, 410.92, 342.204)" x="410.92" y="342.204">GPU mat_vec_mul</text>
</g>
<polyline clip-path="url(#clip6401)" style="stroke:#3da44d; stroke-width:4; stroke-opacity:1; fill:none" points="
  249.64,385.184 387.88,385.184 
  "/>
<g clip-path="url(#clip6401)">
<text style="fill:#000000; fill-opacity:1; font-family:Arial,Helvetica Neue,Helvetica,sans-serif; font-size:48px; text-anchor:start;" transform="rotate(0, 410.92, 402.684)" x="410.92" y="402.684">CPU mat_mat_mul</text>
</g>
<polyline clip-path="url(#clip6401)" style="stroke:#c271d2; stroke-width:4; stroke-opacity:1; fill:none" points="
  249.64,445.664 387.88,445.664 
  "/>
<g clip-path="url(#clip6401)">
<text style="fill:#000000; fill-opacity:1; font-family:Arial,Helvetica Neue,Helvetica,sans-serif; font-size:48px; text-anchor:start;" transform="rotate(0, 410.92, 463.164)" x="410.92" y="463.164">GPU mat_mat_mul</text>
</g>
</svg>
